<?xml version="1.0" encoding="utf-8"?>
<!-- Generator: Adobe Illustrator 19.2.1, SVG Export Plug-In . SVG Version: 6.00 Build 0)  -->
<svg version="1.1" id="layer" xmlns="http://www.w3.org/2000/svg" xmlns:xlink="http://www.w3.org/1999/xlink" x="0px" y="0px"
	 viewBox="0 0 652 652" style="enable-background:new 0 0 652 652;" xml:space="preserve">
<style type="text/css">
	.st0{fill:#231F20;}
</style>
<g>
	<g>
		<g>
			<path class="st0" d="M352.1,336.2c-13.3,0-22.8-9.9-22.8-22.1v-0.1c0-12.3,9.6-22.2,22.9-22.2c13.3,0,22.8,9.9,22.8,22.1v0.1
				C374.9,326.3,365.3,336.2,352.1,336.2z M365.1,314.1c0-7.4-5.4-13.5-13-13.5c-7.6,0-12.9,6-12.9,13.4v0.1c0,7.4,5.4,13.5,13,13.5
				c7.6,0,12.9-6,12.9-13.4V314.1z"/>
			<path class="st0" d="M396.7,336.2c-11.5,0-18.6-6.5-18.6-19v-24.5h9.4V317c0,7,3.5,10.6,9.3,10.6s9.2-3.5,9.2-10.3v-24.6h9.4
				v24.2C415.5,329.8,408.1,336.2,396.7,336.2z"/>
			<path class="st0" d="M440.9,301.3v34.2h-9.4v-34.2h-13.1v-8.7h35.5v8.7H440.9z"/>
			<path class="st0" d="M473.7,335.5h-16.7v-42.9h16.7c13.5,0,22.8,9.2,22.8,21.4v0.1C496.4,326.1,487.1,335.5,473.7,335.5z
				 M486.6,314.1c0-7.6-5.3-13-13-13h-7.3V327h7.3c7.7,0,13-5.3,13-12.9V314.1z"/>
			<path class="st0" d="M521.1,336.2c-13.3,0-22.8-9.9-22.8-22.1v-0.1c0-12.3,9.6-22.2,22.9-22.2c13.3,0,22.8,9.9,22.8,22.1v0.1
				C543.9,326.3,534.3,336.2,521.1,336.2z M534.1,314.1c0-7.4-5.4-13.5-13-13.5c-7.6,0-12.9,6-12.9,13.4v0.1c0,7.4,5.4,13.5,13,13.5
				c7.6,0,12.9-6,12.9-13.4V314.1z"/>
			<path class="st0" d="M568.6,336.2c-13.3,0-22.8-9.9-22.8-22.1v-0.1c0-12.3,9.6-22.2,22.9-22.2c13.3,0,22.8,9.9,22.8,22.1v0.1
				C591.5,326.3,581.9,336.2,568.6,336.2z M581.6,314.1c0-7.4-5.4-13.5-13-13.5s-12.9,6-12.9,13.4v0.1c0,7.4,5.4,13.5,13,13.5
				C576.3,327.5,581.6,321.5,581.6,314.1L581.6,314.1z"/>
			<path class="st0" d="M620.2,335.5l-9.2-13.8h-7.4v13.8h-9.4v-42.9h19.6c10.1,0,16.2,5.4,16.2,14.2v0.1c0,6.9-3.7,11.2-9.2,13.3
				l10.5,15.3L620.2,335.5L620.2,335.5z M620.3,307.3c0-4-2.8-6.2-7.4-6.2h-9.4v12.4h9.6c4.6,0,7.2-2.4,7.2-6.1V307.3z"/>
		</g>
		<path class="st0" d="M411.5,358.9c9.7,2.1,14.2,5.7,14.2,12.4c0,7.5-6.2,12.4-14.9,12.4c-6.9,0-12.6-2.3-17.7-7l3-3.6
			c4.6,4.2,8.9,6.2,14.9,6.2c5.9,0,9.7-3,9.7-7.5c0-4-2.2-6.4-11.3-8.3c-10-2.1-14.6-5.4-14.6-12.6c0-7,6.1-11.9,14.3-11.9
			c6.4,0,10.8,1.8,15.3,5.4l-2.8,3.7c-4-3.3-8.1-4.8-12.6-4.8c-5.7,0-9.2,3.1-9.2,7.1C399.7,354.6,402,356.9,411.5,358.9z"/>
		<path class="st0" d="M509.7,383h-5.3l-5.1-11.4h-23.7l-5.2,11.4h-5.1l19.8-43.7h4.6L509.7,383z M487.5,344.9l-9.9,22.2h19.8
			L487.5,344.9z"/>
		<path class="st0" d="M573.7,383.8c-12.6,0-21.8-9.9-21.8-22.5c0-12.5,9.2-22.6,22-22.6c7.9,0,12.7,2.8,16.9,6.9l-3.3,3.6
			c-3.6-3.4-7.8-6-13.7-6c-9.6,0-16.8,7.8-16.8,17.9s7.3,18,16.8,18c6,0,9.9-2.3,14.1-6.3l3.2,3.1
			C586.5,380.7,581.6,383.8,573.7,383.8z"/>
		<path class="st0" d="M601.1,363.5V383h-4.9v-43.4h4.9v19.3h25.1v-19.3h4.9V383h-4.9v-19.5H601.1z"/>
		<g>
			<path class="st0" d="M389.1,344h-26.5v14.9h23.7v4.5h-23.7v15.2h26.8v4.5h-31.7v-43.4h31.4V344z"/>
		</g>
		<g>
			<path class="st0" d="M461.1,344h-26.5v14.9h23.7v4.5h-23.7v15.2h26.8v4.5h-31.7v-43.4h31.4V344z"/>
		</g>
		<g>
			<path class="st0" d="M347.4,383l-12.7-16.9h-12.5V383h-4.9v-43.4h18.7c9.5,0,15.7,5.2,15.7,13c0,7.3-5,11.5-11.8,12.8l13.4,17.7
				H347.4z M335.8,344.1h-13.4v17.6h13.4c6.5,0,11.1-3.3,11.1-9C346.9,347.3,342.8,344.1,335.8,344.1z"/>
		</g>
		<path class="st0" d="M543.5,383l-12.7-16.9h-12.5V383h-4.9v-43.4h18.7c9.5,0,15.7,5.2,15.7,13c0,7.3-5,11.5-11.8,12.8l13.4,17.7
			H543.5z M532,344.1h-13.5v17.6h13.4c6.5,0,11.1-3.3,11.1-9C543,347.3,539,344.1,532,344.1z"/>
	</g>
	<g>
		<path class="st0" d="M274.4,293h-70.2l-3.8,6.3c-4-16-27.1-27.9-57.9-30.4c-41.7-3.4-90.7,10.8-105.9,35.7
			c-16.2,26.6,6,48.2,52.4,52c34.7,2.8,68.6-5.4,90.3-20.8l-26.9,47.3h43.7l15.5-27.1l18.5,0.1l18.3,27h44.8L273.1,354
			C335.2,340.7,335.2,293.5,274.4,293z M160,315.1c-9.4,14.2-35.8,22.7-59.6,20.4s-36.4-14.6-27.1-28.8
			c7.5-11.3,33.9-19.8,57.7-17.5C154.8,291.5,167.6,303.7,160,315.1z M281.7,324.2c-3.5,6.6-13.5,11.9-28.8,11.9h-31.6l13.9-25.2
			h31.6C282.1,310.9,285.9,316.4,281.7,324.2z"/>
		<g>
			<path class="st0" d="M300.5,373.8c2.5,0,4.7,2,4.7,4.7s-2.1,4.7-4.7,4.7c-2.5,0-4.7-2-4.7-4.7C295.9,375.7,298,373.8,300.5,373.8
				z M300.5,382.3c2.1,0,3.8-1.7,3.8-3.9c0-2.2-1.7-3.9-3.8-3.9s-3.8,1.7-3.8,3.9C296.7,380.6,298.4,382.3,300.5,382.3z
				 M298.7,375.6h2c1.3,0,1.9,0.5,1.9,1.5s-0.6,1.4-1.4,1.5l1.5,2.3h-0.9l-1.4-2.3h-0.9v2.3h-0.8L298.7,375.6L298.7,375.6z
				 M299.5,378h0.8c0.7,0,1.4,0,1.4-0.9c0-0.7-0.6-0.8-1.2-0.8h-1.1v1.7H299.5L299.5,378z"/>
		</g>
	</g>
</g>
</svg>
